<svg width="104" height="113" viewBox="0 0 104 113" fill="none" xmlns="http://www.w3.org/2000/svg">
<g clip-path="url(#clip0_23_130)">
<path d="M66.7163 10.3337L71.1672 1.50526C71.4635 0.923702 71.3604 0.475272 70.858 0.159969C70.3105 -0.106287 69.8918 0.0268413 69.602 0.566359L65.0932 9.4649C61.1215 7.57235 56.8302 6.6034 52.4942 6.62017C48.0627 6.62017 43.8631 7.56608 39.8953 9.45089L35.3865 0.552346C35.0902 0.0268413 34.678 -0.0992798 34.1305 0.166976C33.6281 0.489285 33.525 0.937716 33.8149 1.51927L38.2657 10.3407C33.8912 12.6826 30.1709 16.253 27.4897 20.6827C24.8511 24.9784 23.4536 30.0343 23.4768 35.2006H81.4473C81.4473 29.9456 80.1075 25.1109 77.4344 20.6827C74.7653 16.265 71.0669 12.6964 66.7163 10.3407V10.3337ZM40.9968 23.1701C40.7729 23.4184 40.5051 23.6147 40.2095 23.7472C39.9139 23.8796 39.5967 23.9455 39.277 23.9408C38.9607 23.9488 38.6464 23.8843 38.3546 23.7515C38.0627 23.6188 37.7998 23.4206 37.583 23.1701C37.3602 22.9275 37.1845 22.6388 37.0661 22.3211C36.9478 22.0034 36.8891 21.6631 36.8938 21.3203C36.8897 20.9765 36.9486 20.6354 37.0669 20.3166C37.1852 19.9978 37.3606 19.7078 37.583 19.4635C37.8001 19.2133 38.063 19.0154 38.3548 18.8826C38.6466 18.7499 38.9608 18.6852 39.277 18.6928C39.9404 18.6928 40.5201 18.952 40.9968 19.4635C41.2279 19.7024 41.4113 19.9906 41.5354 20.3101C41.6595 20.6296 41.7217 20.9735 41.7182 21.3203C41.7209 21.6659 41.6582 22.0085 41.5341 22.3267C41.41 22.6449 41.2271 22.932 40.9968 23.1701ZM67.412 23.1701C67.1956 23.4194 66.9337 23.6168 66.6431 23.7495C66.3525 23.8822 66.0395 23.9474 65.7244 23.9408C65.4036 23.9469 65.085 23.8817 64.7882 23.7491C64.4914 23.6166 64.2225 23.4196 63.9982 23.1701C63.7672 22.9325 63.5839 22.6455 63.4597 22.3272C63.3356 22.0089 63.2733 21.666 63.2767 21.3203C63.2767 20.5986 63.5151 19.982 63.9982 19.4635C64.2228 19.2143 64.4916 19.0175 64.7884 18.885C65.0852 18.7525 65.4036 18.6871 65.7244 18.6928C66.3943 18.6928 66.9482 18.952 67.412 19.4635C67.6352 19.7071 67.8112 19.997 67.9296 20.3159C68.0479 20.6348 68.1063 20.9764 68.1012 21.3203C68.1012 22.035 67.8757 22.6516 67.412 23.1701ZM23.4768 82.496C23.4768 84.556 24.1467 86.3077 25.48 87.7511C26.8198 89.1804 28.4429 89.9021 30.3753 89.9021H35.2577L35.3221 105.191C35.3221 107.125 35.9469 108.764 37.2029 110.117C37.7898 110.767 38.492 111.282 39.267 111.629C40.042 111.976 40.8738 112.148 41.7117 112.134C42.5599 112.152 43.4025 111.983 44.1886 111.636C44.9747 111.289 45.6879 110.772 46.285 110.117C46.8937 109.481 47.3751 108.715 47.6987 107.868C48.0224 107.02 48.1814 106.109 48.1658 105.191V89.9021H56.8163V105.191C56.8163 107.125 57.4411 108.764 58.6971 110.117C59.2939 110.772 60.007 111.289 60.7932 111.636C61.5793 111.983 62.4221 112.153 63.2703 112.134C64.1185 112.152 64.9611 111.983 65.7472 111.636C66.5333 111.289 67.2465 110.772 67.8435 110.117C68.4523 109.481 68.9336 108.715 69.2573 107.868C69.581 107.02 69.74 106.109 69.7243 105.191V89.9021H74.6196C76.494 89.9021 78.0979 89.1804 79.4441 87.744C80.7774 86.3077 81.4473 84.556 81.4473 82.489V37.6179H23.4768V82.489V82.496ZM91.0768 36.3427C90.2423 36.3272 89.4132 36.4913 88.6372 36.8256C87.8612 37.1598 87.1536 37.6577 86.5551 38.2906C85.947 38.9005 85.4645 39.6434 85.1392 40.4706C84.814 41.2979 84.6533 42.1906 84.6678 43.0902V71.5585C84.6678 73.4573 85.2991 75.0689 86.5551 76.3932C87.1476 77.0377 87.8533 77.5461 88.6301 77.8879C89.4069 78.2298 90.2389 78.3982 91.0768 78.3831C92.8803 78.3831 94.4069 77.7174 95.6629 76.3932C96.2705 75.7755 96.7524 75.0261 97.0775 74.1934C97.4025 73.3607 97.5636 72.4631 97.5502 71.5585V43.0902C97.5647 42.1906 97.404 41.2979 97.0788 40.4706C96.7535 39.6434 96.271 38.9005 95.6629 38.2906C95.0542 37.6531 94.3357 37.1528 93.5487 36.8185C92.7616 36.4842 91.9215 36.3225 91.0768 36.3427ZM9.26117 38.3256C9.86508 37.6786 10.582 37.1698 11.3697 36.8292C12.1574 36.4886 12.9998 36.3232 13.8473 36.3427C15.6057 36.3427 17.1129 37.0013 18.369 38.3256C18.972 38.9324 19.4515 39.6698 19.7765 40.4904C20.1016 41.3111 20.265 42.1967 20.2562 43.0902V71.5585C20.2706 72.46 20.1132 73.355 19.7939 74.1871C19.4747 75.0191 19.0005 75.7703 18.4012 76.3932C17.8049 77.042 17.094 77.5528 16.3114 77.8948C15.5287 78.2368 14.6905 78.4029 13.8473 78.3831C12.9994 78.4012 12.1568 78.2345 11.3692 77.8928C10.5815 77.551 9.86476 77.0411 9.26117 76.3932C8.65353 75.7755 8.17165 75.0261 7.84659 74.1934C7.52152 73.3607 7.36051 72.4631 7.37391 71.5585V43.0902C7.37391 41.2404 8.00515 39.6499 9.26117 38.3256Z" fill="white"/>
</g>
<defs>
<clipPath id="clip0_23_130">
<rect width="103.059" height="112.108" fill="white" transform="translate(0.932739 0.0268555)"/>
</clipPath>
</defs>
</svg>
