<svg width="104" height="113" viewBox="0 0 104 113" fill="none" xmlns="http://www.w3.org/2000/svg">
<g clip-path="url(#clip0_23_124)">
<path d="M91.0328 7.03358C92.7411 7.03358 94.3794 7.77179 95.5873 9.0858C96.7953 10.3998 97.4739 12.182 97.4739 14.0403V98.121C97.4739 99.9793 96.7953 101.762 95.5873 103.076C94.3794 104.39 92.7411 105.128 91.0328 105.128H13.7388C12.0305 105.128 10.3922 104.39 9.18424 103.076C7.97628 101.762 7.29766 99.9793 7.29766 98.121V14.0403C7.29766 12.182 7.97628 10.3998 9.18424 9.0858C10.3922 7.77179 12.0305 7.03358 13.7388 7.03358H91.0328ZM13.7388 0.0268555C10.3222 0.0268555 7.04555 1.50327 4.62965 4.1313C2.21374 6.75933 0.856503 10.3237 0.856503 14.0403L0.856503 98.121C0.856503 101.838 2.21374 105.402 4.62965 108.03C7.04555 110.658 10.3222 112.134 13.7388 112.134H91.0328C94.4494 112.134 97.726 110.658 100.142 108.03C102.558 105.402 103.915 101.838 103.915 98.121V14.0403C103.915 10.3237 102.558 6.75933 100.142 4.1313C97.726 1.50327 94.4494 0.0268555 91.0328 0.0268555L13.7388 0.0268555Z" fill="white"/>
<path d="M45.0042 32.5801C45.3041 32.9056 45.5421 33.2922 45.7045 33.7178C45.8668 34.1434 45.9504 34.5997 45.9504 35.0605C45.9504 35.5213 45.8668 35.9776 45.7045 36.4033C45.5421 36.8289 45.3041 37.2155 45.0042 37.5409L27.9545 56.0807L45.0042 74.6205C45.609 75.2783 45.9487 76.1706 45.9487 77.1009C45.9487 78.0312 45.609 78.9234 45.0042 79.5813C44.3995 80.2391 43.5793 80.6087 42.7241 80.6087C41.8688 80.6087 41.0486 80.2391 40.4439 79.5813L21.1204 58.5611C20.8205 58.2357 20.5825 57.8491 20.4202 57.4234C20.2578 56.9978 20.1742 56.5415 20.1742 56.0807C20.1742 55.6199 20.2578 55.1636 20.4202 54.738C20.5825 54.3124 20.8205 53.9258 21.1204 53.6003L40.4439 32.5801C40.743 32.2539 41.0984 31.995 41.4897 31.8184C41.881 31.6418 42.3004 31.5509 42.7241 31.5509C43.1477 31.5509 43.5671 31.6418 43.9584 31.8184C44.3497 31.995 44.7051 32.2539 45.0042 32.5801ZM59.7674 32.5801C59.4674 32.9056 59.2295 33.2922 59.0671 33.7178C58.9048 34.1434 58.8212 34.5997 58.8212 35.0605C58.8212 35.5213 58.9048 35.9776 59.0671 36.4033C59.2295 36.8289 59.4674 37.2155 59.7674 37.5409L76.8171 56.0807L59.7674 74.6205C59.1626 75.2783 58.8229 76.1706 58.8229 77.1009C58.8229 78.0312 59.1626 78.9234 59.7674 79.5813C60.3721 80.2391 61.1923 80.6087 62.0475 80.6087C62.9028 80.6087 63.723 80.2391 64.3277 79.5813L83.6512 58.5611C83.9511 58.2357 84.1891 57.8491 84.3514 57.4234C84.5138 56.9978 84.5974 56.5415 84.5974 56.0807C84.5974 55.6199 84.5138 55.1636 84.3514 54.738C84.1891 54.3124 83.9511 53.9258 83.6512 53.6003L64.3277 32.5801C64.0285 32.2539 63.6731 31.995 63.2819 31.8184C62.8906 31.6418 62.4712 31.5509 62.0475 31.5509C61.6239 31.5509 61.2045 31.6418 60.8132 31.8184C60.4219 31.995 60.0665 32.2539 59.7674 32.5801Z" fill="white"/>
</g>
<defs>
<clipPath id="clip0_23_124">
<rect width="103.059" height="112.108" fill="white" transform="translate(0.856503 0.0268555)"/>
</clipPath>
</defs>
</svg>
