<svg width="113" height="113" viewBox="0 0 113 113" fill="none" xmlns="http://www.w3.org/2000/svg">
<g clip-path="url(#clip0_23_115)">
<path fill-rule="evenodd" clip-rule="evenodd" d="M50.8145 5.63224C54.1777 2.09384 56.3498 0.0268555 56.3498 0.0268555C57.1135 2.5703 57.9894 4.98762 58.9493 7.29984C64.6387 20.9349 73.4742 30.7724 81.3498 39.5308C90.5286 49.7466 98.3901 58.498 98.3901 70.0941C98.3901 81.2439 93.9609 91.937 86.0768 99.8211C78.1927 107.705 67.4996 112.134 56.3498 112.134C45.2 112.134 34.5069 107.705 26.6228 99.8211C18.7387 91.937 14.3094 81.2439 14.3094 70.0941C14.3094 46.7477 39.3935 17.6628 50.8145 5.63224ZM53.7082 12.7861C49.2086 17.6553 44.9324 22.7264 40.8929 27.9837C35.8061 34.6401 30.8313 42.0532 27.1598 49.4943C23.4462 57.0126 21.3161 64.0543 21.3161 70.0941C21.3161 70.0941 38.833 80.6042 56.3498 73.5975C73.8666 66.5908 91.3834 70.0941 91.3834 70.0941C91.3834 61.679 85.8061 54.9806 76.1017 44.1692L75.8915 43.945C68.6115 35.8312 59.8531 26.0919 53.7082 12.7791V12.7861Z" fill="white"/>
<path fill-rule="evenodd" clip-rule="evenodd" d="M32.1976 54.5111C37.9431 43.0131 44.2281 35.2216 46.8626 32.5801L51.8234 37.5408C49.7915 39.5728 43.9198 46.7267 38.4616 57.6501L32.1976 54.5111Z" fill="white"/>
</g>
<defs>
<clipPath id="clip0_23_115">
<rect width="112.108" height="112.108" fill="white" transform="translate(0.295959 0.0268555)"/>
</clipPath>
</defs>
</svg>
